<svg aria-hidden="true" style="position: absolute; width: 0; height: 0; overflow: hidden;" version="1.1" xmlns="http://www.w3.org/2000/svg" xmlns:xlink="http://www.w3.org/1999/xlink">
<defs>

<symbol id="icon-search" viewBox="0 0 24 24">
<path d="M21.7 20.3l-3.7-3.7c1.2-1.5 2-3.5 2-5.6 0-5-4-9-9-9s-9 4-9 9c0 5 4 9 9 9 2.1 0 4.1-0.7 5.6-2l3.7 3.7c0.2 0.2 0.5 0.3 0.7 0.3s0.5-0.1 0.7-0.3c0.4-0.4 0.4-1 0-1.4zM4 11c0-3.9 3.1-7 7-7s7 3.1 7 7c0 1.9-0.8 3.7-2 4.9 0 0 0 0 0 0s0 0 0 0c-1.3 1.3-3 2-4.9 2-4 0.1-7.1-3-7.1-6.9z"></path>
</symbol>

<symbol id="icon-sun" viewBox="0 0 24 24">
<path d="M12 6c-3.3 0-6 2.7-6 6s2.7 6 6 6 6-2.7 6-6-2.7-6-6-6zM12 16c-2.2 0-4-1.8-4-4s1.8-4 4-4c2.2 0 4 1.8 4 4s-1.8 4-4 4z"></path>
<path d="M12 4c0.6 0 1-0.4 1-1v-2c0-0.6-0.4-1-1-1s-1 0.4-1 1v2c0 0.6 0.4 1 1 1z"></path>
<path d="M12 20c-0.6 0-1 0.4-1 1v2c0 0.6 0.4 1 1 1s1-0.4 1-1v-2c0-0.6-0.4-1-1-1z"></path>
<path d="M4.9 6.3c0.2 0.2 0.5 0.3 0.7 0.3s0.5-0.1 0.7-0.3c0.4-0.4 0.4-1 0-1.4l-1.4-1.4c-0.4-0.4-1-0.4-1.4 0s-0.4 1 0 1.4l1.4 1.4z"></path>
<path d="M19.1 17.7c-0.4-0.4-1-0.4-1.4 0s-0.4 1 0 1.4l1.4 1.4c0.2 0.2 0.5 0.3 0.7 0.3s0.5-0.1 0.7-0.3c0.4-0.4 0.4-1 0-1.4l-1.4-1.4z"></path>
<path d="M4 12c0-0.6-0.4-1-1-1h-2c-0.6 0-1 0.4-1 1s0.4 1 1 1h2c0.6 0 1-0.4 1-1z"></path>
<path d="M23 11h-2c-0.6 0-1 0.4-1 1s0.4 1 1 1h2c0.6 0 1-0.4 1-1s-0.4-1-1-1z"></path>
<path d="M4.9 17.7l-1.4 1.4c-0.4 0.4-0.4 1 0 1.4 0.2 0.2 0.5 0.3 0.7 0.3s0.5-0.1 0.7-0.3l1.4-1.4c0.4-0.4 0.4-1 0-1.4s-1-0.4-1.4 0z"></path>
<path d="M18.4 6.6c0.3 0 0.5-0.1 0.7-0.3l1.4-1.4c0.4-0.4 0.4-1 0-1.4s-1-0.4-1.4 0l-1.4 1.4c-0.4 0.4-0.4 1 0 1.4 0.1 0.2 0.4 0.3 0.7 0.3z"></path>
</symbol>

<symbol id="icon-arrow-left" viewBox="0 0 400.004 400.004" >
<path d="M382.688,182.686H59.116l77.209-77.214c6.764-6.76,6.764-17.726,0-24.485c-6.764-6.764-17.73-6.764-24.484,0L5.073,187.757
c-6.764,6.76-6.764,17.727,0,24.485l106.768,106.775c3.381,3.383,7.812,5.072,12.242,5.072c4.43,0,8.861-1.689,12.242-5.072
c6.764-6.76,6.764-17.726,0-24.484l-77.209-77.218h323.572c9.562,0,17.316-7.753,17.316-17.315
C400.004,190.438,392.251,182.686,382.688,182.686z"/>
</g></path>
</symbol>

<symbol id="icon-dropdown" viewBox="0 0 48 48">
<path fill="none" d="M37 18L25 30L13 18" stroke-width="4" stroke-linecap="round" stroke-linejoin="round"/>
</symbol>

<symbol id="icon-loader" viewBox="0 0 24 24">
<path d="M11 2v4c0 0.552 0.448 1 1 1s1-0.448 1-1v-4c0-0.552-0.448-1-1-1s-1 0.448-1 1zM11 18v4c0 0.552 0.448 1 1 1s1-0.448 1-1v-4c0-0.552-0.448-1-1-1s-1 0.448-1 1zM4.223 5.637l2.83 2.83c0.391 0.391 1.024 0.391 1.414 0s0.391-1.024 0-1.414l-2.83-2.83c-0.391-0.391-1.024-0.391-1.414 0s-0.391 1.024 0 1.414zM15.533 16.947l2.83 2.83c0.391 0.391 1.024 0.391 1.414 0s0.391-1.024 0-1.414l-2.83-2.83c-0.391-0.391-1.024-0.391-1.414 0s-0.391 1.024 0 1.414zM2 13h4c0.552 0 1-0.448 1-1s-0.448-1-1-1h-4c-0.552 0-1 0.448-1 1s0.448 1 1 1zM18 13h4c0.552 0 1-0.448 1-1s-0.448-1-1-1h-4c-0.552 0-1 0.448-1 1s0.448 1 1 1zM5.637 19.777l2.83-2.83c0.391-0.391 0.391-1.024 0-1.414s-1.024-0.391-1.414 0l-2.83 2.83c-0.391 0.391-0.391 1.024 0 1.414s1.024 0.391 1.414 0zM16.947 8.467l2.83-2.83c0.391-0.391 0.391-1.024 0-1.414s-1.024-0.391-1.414 0l-2.83 2.83c-0.391 0.391-0.391 1.024 0 1.414s1.024 0.391 1.414 0z"></path>
</symbol>

<symbol id="icon-moon-outline" viewBox="0 0 47.6 47.6">
<path d="M24.997,47.511C11.214,47.511,0,36.298,0,22.515C0,12.969,5.314,4.392,13.869,0.132c0.385-0.191,0.848-0.117,1.151,0.186s0.381,0.766,0.192,1.15C13.651,4.64,12.86,8.05,12.86,11.601c0,12.681,10.316,22.997,22.997,22.997c3.59,0,7.033-0.809,10.236-2.403c0.386-0.191,0.848-0.117,1.151,0.186c0.304,0.303,0.381,0.766,0.192,1.15C43.196,42.153,34.597,47.511,24.997,47.511z M12.248,3.372C5.862,7.608,2,14.709,2,22.515c0,12.68,10.316,22.996,22.997,22.996c7.854,0,14.981-3.898,19.207-10.343c-2.668,0.95-5.464,1.43-8.346,1.43c-13.783,0-24.997-11.214-24.997-24.997C10.861,8.761,11.327,6.005,12.248,3.372z"/>
</symbol>

<symbol id="icon-moon-filled" viewBox="0 0 293 293">
 <path   fill='#ffffff' d="M153.699,292.138C68.95,292.138,0,223.185,0,138.439C0,79.742,32.675,27.002,85.28,0.807c2.369-1.174,5.215-0.718,7.077,1.144c1.864,1.864,2.345,4.711,1.183,7.074C83.941,28.527,79.077,49.496,79.077,71.33c0,77.972,63.432,141.407,141.395,141.407c22.08,0,43.247-4.978,62.942-14.777c2.366-1.177,5.213-0.721,7.074,1.141c1.873,1.867,2.342,4.714,1.177,7.073C265.61,259.195,212.738,292.138,153.699,292.138z"/>
 </symbol>

 <symbol id="icon-alert-triangle" viewBox="0 0 24 24">
<path d="M11.148 4.374c0.073-0.123 0.185-0.242 0.334-0.332 0.236-0.143 0.506-0.178 0.756-0.116s0.474 0.216 0.614 0.448l8.466 14.133c0.070 0.12 0.119 0.268 0.128 0.434-0.015 0.368-0.119 0.591-0.283 0.759-0.18 0.184-0.427 0.298-0.693 0.301l-16.937-0.001c-0.152-0.001-0.321-0.041-0.481-0.134-0.239-0.138-0.399-0.359-0.466-0.607s-0.038-0.519 0.092-0.745zM9.432 3.346l-8.47 14.14c-0.422 0.731-0.506 1.55-0.308 2.29s0.68 1.408 1.398 1.822c0.464 0.268 0.976 0.4 1.475 0.402h16.943c0.839-0.009 1.587-0.354 2.123-0.902s0.864-1.303 0.855-2.131c-0.006-0.536-0.153-1.044-0.406-1.474l-8.474-14.147c-0.432-0.713-1.11-1.181-1.854-1.363s-1.561-0.081-2.269 0.349c-0.429 0.26-0.775 0.615-1.012 1.014zM11 9v4c0 0.552 0.448 1 1 1s1-0.448 1-1v-4c0-0.552-0.448-1-1-1s-1 0.448-1 1zM12 18c0.552 0 1-0.448 1-1s-0.448-1-1-1-1 0.448-1 1 0.448 1 1 1z"></path>
</symbol>

<symbol id="icon-smile" viewBox="0 0 24 24">
<path d="M23 12c0-3.037-1.232-5.789-3.222-7.778s-4.741-3.222-7.778-3.222-5.789 1.232-7.778 3.222-3.222 4.741-3.222 7.778 1.232 5.789 3.222 7.778 4.741 3.222 7.778 3.222 5.789-1.232 7.778-3.222 3.222-4.741 3.222-7.778zM21 12c0 2.486-1.006 4.734-2.636 6.364s-3.878 2.636-6.364 2.636-4.734-1.006-6.364-2.636-2.636-3.878-2.636-6.364 1.006-4.734 2.636-6.364 3.878-2.636 6.364-2.636 4.734 1.006 6.364 2.636 2.636 3.878 2.636 6.364zM7.2 14.6c0 0 0.131 0.173 0.331 0.383 0.145 0.153 0.338 0.341 0.577 0.54 0.337 0.281 0.772 0.59 1.297 0.853 0.705 0.352 1.579 0.624 2.595 0.624s1.89-0.272 2.595-0.624c0.525-0.263 0.96-0.572 1.297-0.853 0.239-0.199 0.432-0.387 0.577-0.54 0.2-0.21 0.331-0.383 0.331-0.383 0.331-0.442 0.242-1.069-0.2-1.4s-1.069-0.242-1.4 0.2c-0.041 0.050-0.181 0.206-0.181 0.206-0.1 0.105-0.237 0.239-0.408 0.382-0.243 0.203-0.549 0.419-0.91 0.6-0.48 0.239-1.050 0.412-1.701 0.412s-1.221-0.173-1.701-0.413c-0.36-0.18-0.667-0.397-0.91-0.6-0.171-0.143-0.308-0.277-0.408-0.382-0.14-0.155-0.181-0.205-0.181-0.205-0.331-0.442-0.958-0.531-1.4-0.2s-0.531 0.958-0.2 1.4zM9 10c0.552 0 1-0.448 1-1s-0.448-1-1-1-1 0.448-1 1 0.448 1 1 1zM15 10c0.552 0 1-0.448 1-1s-0.448-1-1-1-1 0.448-1 1 0.448 1 1 1z"></path>
</symbol>
</defs>
</svg>